<?xml version="1.0" standalone="no"?>
<!DOCTYPE svg PUBLIC "-//W3C//DTD SVG 20010904//EN"
 "http://www.w3.org/TR/2001/REC-SVG-20010904/DTD/svg10.dtd">
<svg version="1.0" xmlns="http://www.w3.org/2000/svg"
 width="128.000000pt" height="128.000000pt" viewBox="0 0 128.000000 128.000000"
 preserveAspectRatio="xMidYMid meet">

<g transform="translate(0.000000,128.000000) scale(0.100000,-0.100000)"
fill="#000000" stroke="none">
<path d="M585 1256 c-51 -24 -114 -81 -102 -93 4 -3 7 -1 7 5 0 6 20 23 43 37
104 60 215 8 262 -124 22 -63 19 -178 -5 -244 -33 -87 -118 -158 -190 -157
-36 1 -101 41 -129 81 -39 53 -41 38 -3 -22 135 -211 395 -86 410 197 5 98
-13 171 -60 239 -32 46 -48 58 -117 89 -44 21 -56 20 -116 -8z"/>
<path d="M630 1182 c0 -15 -10 -21 -37 -26 -57 -9 -99 -39 -113 -81 -26 -78 7
-107 135 -120 116 -12 177 -47 127 -74 -27 -14 -88 -24 -111 -16 -17 5 -19 12
-14 37 l6 32 -41 -35 c-55 -45 -54 -70 4 -142 26 -32 38 -35 29 -7 -5 15 -2
20 12 20 75 0 143 49 143 102 0 80 -16 91 -145 103 -80 8 -135 27 -135 48 0
21 45 37 101 37 l51 0 -7 -32 -7 -32 41 33 c22 18 43 36 46 41 9 15 -35 98
-61 115 -22 14 -24 14 -24 -3z"/>
<path d="M920 250 c0 -5 9 -10 20 -10 11 0 20 5 20 10 0 6 -9 10 -20 10 -11 0
-20 -4 -20 -10z"/>
<path d="M320 176 c0 -39 5 -60 20 -77 l20 -24 20 24 c11 13 20 28 19 35 0 6
-5 1 -11 -11 -24 -51 -55 -10 -46 62 2 22 -1 36 -9 39 -10 4 -13 -8 -13 -48z"/>
<path d="M380 215 c0 -19 12 -25 27 -14 19 16 16 28 -7 26 -11 -1 -20 -6 -20
-12z"/>
<path d="M436 222 c-2 -4 -6 -36 -7 -71 -2 -52 0 -65 13 -67 13 -1 16 11 17
66 1 61 -9 94 -23 72z"/>
<path d="M470 215 c0 -8 4 -15 10 -15 5 0 7 7 4 15 -4 8 -8 15 -10 15 -2 0 -4
-7 -4 -15z"/>
<path d="M511 217 c-33 -41 -19 -127 22 -127 34 0 47 19 47 65 0 41 -22 86
-36 73 -4 -4 -1 -14 5 -22 7 -8 11 -34 9 -58 -2 -32 -7 -44 -22 -46 -17 -4
-18 2 -14 62 2 36 3 66 2 66 -1 0 -7 -6 -13 -13z"/>
<path d="M605 213 c21 -50 34 -90 35 -108 1 -19 1 -19 11 -1 8 13 8 30 -1 60
-7 22 -14 47 -16 54 -2 6 -11 12 -20 12 -12 0 -14 -5 -9 -17z"/>
<path d="M685 222 c-6 -4 -10 -35 -10 -69 0 -67 -3 -63 50 -63 3 0 5 3 4 8 0
4 -7 6 -14 4 -11 -2 -15 13 -17 62 -2 42 -7 63 -13 58z"/>
<path d="M750 218 c0 -9 -3 -24 -7 -34 -4 -12 -3 -15 5 -10 8 5 12 0 12 -14 0
-16 -5 -20 -15 -16 -9 3 -15 0 -15 -8 0 -9 7 -12 20 -9 15 4 20 0 20 -15 0
-11 7 -22 15 -26 19 -7 19 -6 -1 68 -17 62 -34 94 -34 64z"/>
<path d="M826 208 c-22 -31 -20 -80 4 -111 11 -14 20 -30 20 -36 0 -6 5 -11
11 -11 6 0 9 7 6 15 -4 8 -1 17 5 21 7 5 4 10 -9 15 -24 9 -35 61 -21 98 12
32 4 37 -16 9z"/>
<path d="M860 223 c0 -4 8 -17 16 -28 15 -20 16 -20 12 4 -3 22 -28 44 -28 24z"/>
<path d="M1011 217 c-17 -22 -23 -70 -12 -99 17 -46 26 -32 26 42 0 39 -1 70
-1 70 -1 0 -7 -6 -13 -13z"/>
<path d="M1040 222 c0 -6 5 -14 10 -17 13 -8 13 -71 0 -96 -7 -12 -7 -19 -1
-19 33 0 42 97 11 125 -11 10 -20 13 -20 7z"/>
<path d="M246 198 c-9 -34 -7 -45 4 -28 8 12 10 10 10 -9 0 -16 -4 -22 -15
-17 -9 3 -15 0 -15 -8 0 -9 7 -12 20 -9 15 4 20 0 20 -15 0 -11 6 -22 14 -25
18 -7 28 3 17 17 -5 6 -14 35 -21 64 -13 56 -24 66 -34 30z"/>
<path d="M930 211 c0 -5 -3 -17 -7 -27 -4 -12 -3 -15 5 -10 8 5 12 0 12 -14 0
-16 -5 -20 -15 -16 -9 3 -15 0 -15 -8 0 -9 7 -12 20 -9 15 4 20 0 20 -15 0
-11 6 -22 14 -25 18 -7 28 3 17 17 -5 6 -14 35 -21 64 -6 28 -16 52 -21 52 -5
0 -9 -4 -9 -9z"/>
<path d="M604 107 c-8 -21 2 -35 16 -21 5 5 6 15 0 24 -8 12 -10 12 -16 -3z"/>
<path d="M216 101 c-4 -5 -2 -12 3 -15 5 -4 12 -2 15 3 4 5 2 12 -3 15 -5 4
-12 2 -15 -3z"/>
<path d="M896 101 c-4 -5 -2 -12 3 -15 5 -4 12 -2 15 3 4 5 2 12 -3 15 -5 4
-12 2 -15 -3z"/>
</g>
</svg>
